<?xml version="1.0" encoding="UTF-8" standalone="no"?>
<!-- Created with Inkscape (http://www.inkscape.org/) -->

<svg
   xmlns:dc="http://purl.org/dc/elements/1.1/"
   xmlns:cc="http://creativecommons.org/ns#"
   xmlns:rdf="http://www.w3.org/1999/02/22-rdf-syntax-ns#"
   xmlns:svg="http://www.w3.org/2000/svg"
   xmlns="http://www.w3.org/2000/svg"
   xmlns:sodipodi="http://sodipodi.sourceforge.net/DTD/sodipodi-0.dtd"
   xmlns:inkscape="http://www.inkscape.org/namespaces/inkscape"
   width="1"
   height="1"
   id="svg2"
   version="1.1"
   inkscape:version="0.48.2 r9819"
   sodipodi:docname="shout.svg">
  <defs
     id="defs4" />
  <sodipodi:namedview
     id="base"
     pagecolor="#ffffff"
     bordercolor="#666666"
     borderopacity="1.0"
     inkscape:pageopacity="0.0"
     inkscape:pageshadow="2"
     inkscape:zoom="1.0681152"
     inkscape:cx="409.27411"
     inkscape:cy="869.0036"
     inkscape:document-units="px"
     inkscape:current-layer="layer1"
     showgrid="false"
     inkscape:snap-global="false"
     inkscape:window-width="1280"
     inkscape:window-height="762"
     inkscape:window-x="40"
     inkscape:window-y="193"
     inkscape:window-maximized="0">
    <inkscape:grid
       type="xygrid"
       id="grid2985"
       empspacing="5"
       visible="true"
       enabled="true"
       snapvisiblegridlinesonly="true" />
  </sodipodi:namedview>
  <metadata
     id="metadata7">
    <rdf:RDF>
      <cc:Work
         rdf:about="">
        <dc:format>image/svg+xml</dc:format>
        <dc:type
           rdf:resource="http://purl.org/dc/dcmitype/StillImage" />
        <dc:title />
      </cc:Work>
    </rdf:RDF>
  </metadata>
  <g
     inkscape:label="Layer 1"
     inkscape:groupmode="layer"
     id="layer1"
     transform="translate(0,-1051.3622)">
    <rect
       style="fill:#363533;fill-opacity:1;fill-rule:evenodd;stroke:none"
       id="rect2987"
       width="206.73332"
       height="367.16992"
       x="15"
       y="-379.5321"
       transform="scale(1,-1)"
       ry="22.94812" />
    <rect
       transform="scale(1,-1)"
       y="-333.63583"
       x="38.2575"
       height="298.32553"
       width="162.80249"
       id="rect3000"
       style="fill:#ffffff;fill-opacity:1;fill-rule:evenodd;stroke:none" />
    <path
       style="fill:#808080;fill-opacity:1;fill-rule:evenodd;stroke:none"
       d="m 84.670555,242.59511 0,91.07015 45.625205,0 0,-91.07015 -45.625205,0 z"
       id="rect3026"
       inkscape:connector-curvature="0" />
    <path
       style="fill:#b3b3b3;fill-opacity:1;fill-rule:evenodd;stroke:none"
       d="m 142.4128,173.32051 -11.41602,160.34475 46.36964,0 -10.84523,-159.78153 z"
       id="rect3028"
       inkscape:connector-curvature="0"
       sodipodi:nodetypes="ccccc" />
    <path
       sodipodi:type="arc"
       style="fill:#008080;fill-opacity:1;fill-rule:evenodd;stroke:none"
       id="path3002-7"
       sodipodi:cx="55"
       sodipodi:cy="162.36218"
       sodipodi:rx="5"
       sodipodi:ry="5"
       d="m 59.784053,160.90862 c 0.802779,2.64216 -0.688333,5.43484 -3.330492,6.23762 -2.64216,0.80277 -5.434835,-0.68834 -6.237614,-3.3305 -0.802779,-2.64216 0.688333,-5.43483 3.330492,-6.23761 2.642105,-0.80276 5.43473,0.68827 6.237571,3.33035"
       sodipodi:start="5.9882143"
       sodipodi:end="12.27137"
       sodipodi:open="true"
       transform="matrix(3.5127022,0,0,3.465975,-73.037537,-280.75174)" />
    <path
       transform="matrix(2.8735741,0,0,2.8353487,-37.885487,-178.36189)"
       sodipodi:open="true"
       sodipodi:end="12.27137"
       sodipodi:start="5.9882143"
       d="m 59.784053,160.90862 c 0.802779,2.64216 -0.688333,5.43484 -3.330492,6.23762 -2.64216,0.80277 -5.434835,-0.68834 -6.237614,-3.3305 -0.802779,-2.64216 0.688333,-5.43483 3.330492,-6.23761 2.642105,-0.80276 5.43473,0.68827 6.237571,3.33035"
       sodipodi:ry="5"
       sodipodi:rx="5"
       sodipodi:cy="162.36218"
       sodipodi:cx="55"
       id="path3022"
       style="fill:#ffffff;fill-opacity:1;fill-rule:evenodd;stroke:none"
       sodipodi:type="arc" />
    <path
       style="fill:#e6e6e6;fill-opacity:1;fill-rule:evenodd;stroke:none"
       d="m 38.257499,161.48266 0,172.1826 46.369638,0 0,-136.43208 z"
       id="rect3024"
       inkscape:connector-curvature="0"
       sodipodi:nodetypes="ccccc" />
    <rect
       transform="scale(1,-1)"
       y="-333.63583"
       x="177.53297"
       height="96.540848"
       width="23.527018"
       id="rect3031"
       style="fill:#e6e6e6;fill-opacity:1;fill-rule:evenodd;stroke:none" />
    <path
       style="fill:#ececec;fill-opacity:1;fill-rule:evenodd;stroke:none"
       d="m 157.17228,81.531492 c -1.0428,-0.0066 -2.09911,0.129059 -3.14939,0.443929 -3.64237,1.091958 -6.24097,3.943843 -7.15362,7.324819 -0.56392,0.07431 -1.1026,0.18666 -1.66468,0.355143 -5.60159,1.679316 -8.76559,7.480036 -7.06364,13.007107 1.24734,4.05071 4.73535,6.80182 8.72832,7.32481 l 0,0.1332 1.30474,0 26.18496,0 0.76486,0 0,-0.0443 c 0.82862,-0.0524 1.64566,-0.19544 2.47453,-0.44392 5.78825,-1.73528 9.04727,-7.78417 7.28859,-13.49543 -1.7588,-5.711085 -7.88923,-8.926883 -13.67736,-7.191642 -1.349,0.404419 -2.55594,1.051393 -3.59931,1.8645 -0.0712,-0.631436 -0.16596,-1.234613 -0.35994,-1.8645 -1.38294,-4.49061 -5.55924,-7.384311 -10.07806,-7.413606 z"
       id="path3034"
       inkscape:connector-curvature="0" />
    <path
       inkscape:connector-curvature="0"
       id="path3811"
       d="m 83.53894,52.807877 c -1.042804,-0.0066 -2.09912,0.12906 -3.149395,0.443929 -3.642379,1.091959 -6.240967,3.943843 -7.153623,7.32482 -0.563916,0.07431 -1.102606,0.186659 -1.664682,0.355143 -5.601585,1.679315 -8.765594,7.480035 -7.06364,13.007105 1.247339,4.050713 4.735356,6.801816 8.728322,7.32482 l 0,0.133191 1.30475,0 26.184958,0 0.76486,0 0,-0.04438 c 0.82861,-0.05239 1.64565,-0.195449 2.47452,-0.443926 5.78826,-1.73528 9.04727,-7.78417 7.28859,-13.495432 -1.7588,-5.711084 -7.88923,-8.926882 -13.677363,-7.191641 -1.348988,0.404418 -2.555935,1.051393 -3.599307,1.864499 C 93.9057,61.45457 93.810969,60.851392 93.617001,60.221506 92.234056,55.730896 88.057748,52.837195 83.53894,52.807899 z"
       style="fill:#ececec;fill-opacity:1;fill-rule:evenodd;stroke:none" />
    <rect
       ry="22.94812"
       transform="scale(1,-1)"
       y="-379.5321"
       x="268.00363"
       height="367.16992"
       width="206.73332"
       id="rect3833"
       style="fill:#363533;fill-opacity:1;fill-rule:evenodd;stroke:none" />
    <rect
       style="fill:#ffffff;fill-opacity:1;fill-rule:evenodd;stroke:none"
       id="rect3835"
       width="162.80249"
       height="298.32553"
       x="291.26114"
       y="-333.63583"
       transform="scale(1,-1)" />
    <path
       inkscape:connector-curvature="0"
       id="path3837"
       d="m 337.6742,242.59511 0,91.07015 45.62522,0 0,-91.07015 -45.62522,0 z"
       style="fill:#808080;fill-opacity:1;fill-rule:evenodd;stroke:none" />
    <path
       sodipodi:nodetypes="ccccc"
       inkscape:connector-curvature="0"
       id="path3839"
       d="m 395.41644,173.32051 -11.41601,160.34475 46.36964,0 -10.84523,-159.78153 z"
       style="fill:#b3b3b3;fill-opacity:1;fill-rule:evenodd;stroke:none" />
    <path
       sodipodi:nodetypes="ccccc"
       inkscape:connector-curvature="0"
       id="path3845"
       d="m 291.26116,161.48266 0,172.1826 46.36964,0 0,-136.43208 z"
       style="fill:#e6e6e6;fill-opacity:1;fill-rule:evenodd;stroke:none" />
    <rect
       style="fill:#e6e6e6;fill-opacity:1;fill-rule:evenodd;stroke:none"
       id="rect3847"
       width="23.527018"
       height="96.540848"
       x="430.53665"
       y="-333.63583"
       transform="scale(1,-1)" />
    <path
       inkscape:connector-curvature="0"
       id="path3849"
       d="m 410.17593,81.531492 c -1.04278,-0.0066 -2.09913,0.129059 -3.14938,0.443929 -3.64239,1.091958 -6.24096,3.943843 -7.15364,7.324819 -0.5639,0.07431 -1.10258,0.18666 -1.66467,0.355143 -5.60157,1.679316 -8.76559,7.480036 -7.06364,13.007107 1.24732,4.05071 4.73535,6.80182 8.72831,7.32481 l 0,0.1332 1.30477,0 26.18495,0 0.76486,0 0,-0.0443 c 0.82861,-0.0524 1.64565,-0.19544 2.47452,-0.44392 5.78827,-1.73528 9.04727,-7.78417 7.2886,-13.49543 -1.75882,-5.711085 -7.88924,-8.926883 -13.67739,-7.191642 -1.34897,0.404419 -2.5559,1.051393 -3.59929,1.8645 -0.0711,-0.631436 -0.16614,-1.234613 -0.35994,-1.8645 -1.38295,-4.49061 -5.55923,-7.384311 -10.07806,-7.413606 z"
       style="fill:#ececec;fill-opacity:1;fill-rule:evenodd;stroke:none" />
    <path
       style="fill:#ececec;fill-opacity:1;fill-rule:evenodd;stroke:none"
       d="m 336.5426,52.807877 c -1.04281,-0.0066 -2.09913,0.12906 -3.14942,0.443929 -3.64237,1.091959 -6.24095,3.943843 -7.15359,7.32482 -0.56393,0.07431 -1.10261,0.186659 -1.66468,0.355143 -5.6016,1.679315 -8.76559,7.480035 -7.06366,13.007105 1.24734,4.050713 4.73536,6.801816 8.72834,7.32482 l 0,0.133191 1.30474,0 26.18496,0 0.76484,0 0,-0.04438 c 0.82862,-0.05239 1.64566,-0.195449 2.47452,-0.443926 5.78827,-1.73528 9.04728,-7.78417 7.2886,-13.495432 -1.75879,-5.711084 -7.88924,-8.926882 -13.67735,-7.191641 -1.34901,0.404418 -2.55597,1.051393 -3.5993,1.864499 -0.0711,-0.631435 -0.16614,-1.234613 -0.35995,-1.864499 -1.38296,-4.49061 -5.55926,-7.384311 -10.07805,-7.413607 z"
       id="path3851"
       inkscape:connector-curvature="0" />
    <path
       transform="matrix(3.5127022,0,0,3.465975,178.69965,-418.73773)"
       sodipodi:open="true"
       sodipodi:end="12.27137"
       sodipodi:start="5.9882143"
       d="m 59.784053,160.90862 c 0.802779,2.64216 -0.688333,5.43484 -3.330492,6.23762 -2.64216,0.80277 -5.434835,-0.68834 -6.237614,-3.3305 -0.802779,-2.64216 0.688333,-5.43483 3.330492,-6.23761 2.642105,-0.80276 5.43473,0.68827 6.237571,3.33035"
       sodipodi:ry="5"
       sodipodi:rx="5"
       sodipodi:cy="162.36218"
       sodipodi:cx="55"
       id="path3855"
       style="fill:#008080;fill-opacity:1;fill-rule:evenodd;stroke:none"
       sodipodi:type="arc" />
    <path
       style="fill:#ffffff;stroke:none"
       d="m 366.64062,137.76552 0,13.35789 13.86816,-6.51605 z"
       id="path3853"
       inkscape:connector-curvature="0" />
    <rect
       style="fill:#363533;fill-opacity:1;fill-rule:evenodd;stroke:none"
       id="rect3857"
       width="206.73334"
       height="367.16992"
       x="519.68726"
       y="-379.5321"
       transform="scale(1,-1)"
       ry="22.94812" />
    <rect
       style="fill:#008080;fill-opacity:1;fill-rule:evenodd;stroke:none"
       id="rect3877"
       width="97.998222"
       height="35.482113"
       x="324.698"
       y="266.49274" />
    <text
       xml:space="preserve"
       style="font-size:16.03287697px;font-style:normal;font-variant:normal;font-weight:normal;font-stretch:normal;line-height:125%;letter-spacing:1.56047213px;word-spacing:0px;fill:#ffffff;fill-opacity:1;stroke:none;font-family:Lato;-inkscape-font-specification:Lato"
       x="344.04761"
       y="289.07977"
       id="text3879"
       sodipodi:linespacing="125%"><tspan
         sodipodi:role="line"
         id="tspan3881"
         x="344.04761"
         y="289.07977" /></text>
    <rect
       style="fill:#e6e6e6;fill-opacity:1;fill-rule:evenodd;stroke:none"
       id="rect3883"
       width="162.80251"
       height="109.40839"
       x="542.54401"
       y="-332.68411"
       transform="scale(1,-1)" />
    <path
       inkscape:connector-curvature="0"
       d="m 567.59666,278.4751 -3.5236,-0.005 c -3.95831,0 -6.51606,2.62446 -6.51606,6.6865 v 3.08293 h -3.54282 c -0.30612,0 -0.554,0.24819 -0.554,0.55431 v 4.4668 c 0,0.30612 0.24817,0.55399 0.554,0.55399 h 3.54254 v 11.27121 c 0,0.30612 0.24787,0.55399 0.55399,0.55399 h 4.62201 c 0.30611,0 0.554,-0.24817 0.554,-0.55399 v -11.27032 h 4.14202 c 0.30612,0 0.55402,-0.24786 0.55402,-0.55398 l 0.002,-4.46682 c 0,-0.14699 -0.0584,-0.28774 -0.1623,-0.39177 -0.10386,-0.10387 -0.24506,-0.16248 -0.39204,-0.16248 h -4.14315 v -2.61343 c 0,-1.25614 0.29932,-1.89379 1.93533,-1.89379 l 2.37375,-7.6e-4 c 0.30585,0 0.55371,-0.24817 0.55371,-0.55403 v -4.14767 c 0,-0.30554 -0.24758,-0.55344 -0.55315,-0.55403 z"
       id="path3"
       style="fill:#008080;fill-opacity:1" />
    <path
       style="fill:#008080;fill-opacity:1;fill-rule:evenodd"
       inkscape:connector-curvature="0"
       clip-rule="evenodd"
       d="m 591.28937,282.45047 h 17.57601 c 1.66918,0 3.03485,1.23579 3.03485,3.03485 v 17.57626 c 0,1.79929 -1.36567,3.03485 -3.03485,3.03485 h -17.57601 c -1.66964,0 -3.03508,-1.23581 -3.03508,-3.03485 v -17.57626 c 0,-1.79906 1.36544,-3.03485 3.03508,-3.03485 l 0,0 z m 14.19014,2.62721 c -0.58562,0 -1.06438,0.47875 -1.06438,1.06462 v 2.54806 c 0,0.58559 0.47876,1.06459 1.06438,1.06459 h 2.67258 c 0.58535,0 1.06436,-0.479 1.06436,-1.06459 v -2.54806 c 0,-0.58587 -0.47901,-1.06462 -1.06436,-1.06462 h -2.67258 l 0,0 z m 3.74836,7.37246 h -2.08143 c 0.19687,0.64288 0.30351,1.32389 0.30351,2.02871 0,3.93313 -3.29099,7.1214 -7.35012,7.1214 -4.0589,0 -7.34962,-3.18827 -7.34962,-7.1214 0,-0.70507 0.10632,-1.38583 0.30349,-2.02871 h -2.17173 v 9.98845 c 0,0.5169 0.42295,0.94008 0.94006,0.94008 h 16.46625 c 0.51689,0 0.94008,-0.42294 0.94008,-0.94008 v -9.98845 l -4.9e-4,0 z m -9.12828,-2.82943 c -2.62256,0 -4.74889,2.06001 -4.74889,4.6015 0,2.5415 2.12633,4.60154 4.74889,4.60154 2.62282,0 4.74936,-2.06004 4.74936,-4.60154 0,-2.54149 -2.12631,-4.6015 -4.74936,-4.6015 z"
       id="path3-2" />
    <path
       inkscape:connector-curvature="0"
       d="m 653.61983,286.54614 c -0.90548,0.40123 -1.87706,0.67333 -2.89786,0.79481 1.04231,-0.62417 1.84018,-1.61423 2.21837,-2.79029 -0.97619,0.57805 -2.05694,0.99775 -3.20688,1.22527 -0.91932,-0.98238 -2.23066,-1.59422 -3.68194,-1.59422 -2.78718,0 -5.04707,2.2599 -5.04707,5.04553 0,0.3951 0.0447,0.78098 0.1308,1.14993 -4.19383,-0.2106 -7.91266,-2.2199 -10.4016,-5.27306 -0.43508,0.74407 -0.68259,1.61114 -0.68259,2.53662 0,1.75102 0.89166,3.29602 2.24452,4.19998 -0.82709,-0.0276 -1.60497,-0.25518 -2.28602,-0.63338 v 0.063 c 0,2.44439 1.74026,4.48444 4.0478,4.94871 -0.42278,0.1139 -0.86859,0.17679 -1.32977,0.17679 -0.32593,0 -0.64111,-0.0324 -0.95009,-0.0924 0.6426,2.00467 2.50585,3.46361 4.71347,3.50512 -1.72642,1.35286 -3.9033,2.15843 -6.2677,2.15843 -0.40741,0 -0.80868,-0.0246 -1.20376,-0.0692 2.23375,1.43279 4.88565,2.26909 7.73586,2.26909 9.28246,0 14.35873,-7.68975 14.35873,-14.35871 l -0.018,-0.65336 c 0.99004,-0.70871 1.84789,-1.59731 2.52275,-2.60887 z"
       id="path3-9"
       style="fill:#666666" />
    <g
       transform="matrix(0.22142729,0,0,0.22142729,669.24665,282.3148)"
       id="g3"
       style="fill:#666666">
      <path
         style="fill:#666666;fill-rule:evenodd"
         inkscape:connector-curvature="0"
         clip-rule="evenodd"
         d="m 93.235,49.46 c -1.716,0.454 -3.496,0.768 -5.338,0.94 -8.832,0.826 -16.284,-1.746 -21.197,-9.579 -2.939,-4.687 -3.746,-9.954 -3.415,-15.414 0.133,-2.185 0.533,-4.314 1.694,-6.222 1.082,-1.776 2.565,-2.939 4.736,-3.016 3.1,-0.109 5.252,1.798 6.107,5.533 1.1,4.792 0.351,9.489 -0.97,14.11 -0.135,0.472 -0.385,1.467 -0.385,1.467 0,0 0.635,0.721 1.094,1.182 3.194,3.214 7.14,3.947 11.434,3.603 0.671,-0.054 1.609,-0.142 1.609,-0.142 0,0 0.432,-1.073 0.603,-1.537 C 91.516,34.067 92.47,27.593 91.78,20.876 90.796,11.291 85.716,2.945 73.487,1.706 62.549,0.598 53.474,5.638 49.666,16.083 47.481,22.079 47.37,28.227 48.481,34.419 50.34,44.77 55.21,53.181 64.529,58.586 c 0.931,0.539 0.943,0.965 0.49,1.826 -3.788,7.209 -8.313,13.906 -13.788,19.946 -2.36,2.603 -2.341,2.577 -4.558,-0.228 C 35.513,66.002 29.367,49.698 25.887,32.237 24.935,27.46 24.154,22.671 23.557,17.833 L 23.417,16.16 6.765,16.15 6.9,17.099 c 2.105,15.033 5.289,29.796 10.917,43.952 4.137,10.402 9.353,20.169 16.909,28.544 2.459,2.725 5.149,5.184 8.251,7.181 3.63,2.338 7.182,2.185 10.672,-0.254 0.995,-0.698 1.958,-1.457 2.86,-2.273 9.608,-8.698 17.368,-18.82 23.243,-30.371 0.457,-0.902 0.93,-1.315 2.013,-1.32 2.437,-0.01 4.863,-0.291 7.271,-0.697 1.418,-0.239 2.817,-0.528 4.199,-0.876 V 49.46 z"
         id="path5" />
    </g>
    <rect
       style="fill:#f2f2f2;fill-opacity:1;fill-rule:evenodd;stroke:none"
       id="rect3121"
       width="162.80251"
       height="74.610291"
       x="542.34564"
       y="-110.25404"
       transform="scale(1,-1)" />
    <path
       inkscape:connector-curvature="0"
       d="m 559.00992,47.649688 2.63928,2.63929 -6.68078,6.68078 -2.63779,-2.63928 6.67929,-6.68079 z m 4.64202,-0.63655 -1.17702,-1.17702 c -0.45489,-0.45489 -1.19353,-0.45489 -1.64993,0 l -1.12748,1.12747 2.63929,2.63929 1.31514,-1.31514 c 0.35281,-0.3528 0.35281,-0.92179 0,-1.2746 z m -12.7025,11.02705 c -0.048,0.21619 0.14712,0.40986 0.36331,0.35731 l 2.94105,-0.71312 -2.63779,-2.63928 -0.66657,2.99509 z"
       id="path3-3" />
    <rect
       transform="scale(1,-1)"
       y="-186.71259"
       x="542.34564"
       height="76.819801"
       width="162.80251"
       id="rect3130"
       style="fill:#e6e6e6;fill-opacity:1;fill-rule:evenodd;stroke:none" />
    <rect
       transform="scale(1,-1)"
       y="-223.69647"
       x="542.34564"
       height="37.535637"
       width="162.80251"
       id="rect3138"
       style="fill:#ffffff;fill-opacity:1;fill-rule:evenodd;stroke:none" />
    <path
       inkscape:connector-curvature="0"
       d="m 558.20989,195.12958 c -3.5527,0 -6.44303,2.89033 -6.44303,6.44299 0,1.43089 0.91372,3.76373 2.79323,7.13186 1.32948,2.38223 2.63709,4.36856 2.69203,4.45193 l 0.95777,1.45176 0.95773,-1.45172 c 0.055,-0.0834 1.36266,-2.06974 2.69202,-4.45193 1.8796,-3.36817 2.79324,-5.70097 2.79324,-7.13186 3e-5,-3.5527 -2.8903,-6.44303 -6.44299,-6.44303 z m 0,9.73928 c -1.84448,0 -3.33979,-1.49527 -3.33979,-3.33979 0,-1.84452 1.49531,-3.33979 3.33979,-3.33979 1.84448,0 3.33979,1.49527 3.33979,3.33979 0,1.84452 -1.49531,3.33979 -3.33979,3.33979 z"
       id="path3-91" />
    <text
       sodipodi:linespacing="125%"
       id="text3163"
       y="289.07977"
       x="348.04761"
       style="font-size:16.03287697px;font-style:normal;font-variant:normal;font-weight:normal;font-stretch:normal;line-height:125%;letter-spacing:1.56047213px;word-spacing:0px;fill:#ffffff;fill-opacity:1;stroke:none;font-family:Lato;-inkscape-font-specification:Lato"
       xml:space="preserve"><tspan
         y="289.07977"
         x="348.04761"
         id="tspan3165"
         sodipodi:role="line">NEXT</tspan></text>
    <rect
       y="223.9505"
       x="542.20264"
       height="35.482113"
       width="162.71034"
       id="rect3037"
       style="fill:#008080;fill-opacity:1;fill-rule:evenodd;stroke:none" />
    <text
       xml:space="preserve"
       style="font-size:40px;font-style:normal;font-variant:normal;font-weight:normal;font-stretch:normal;line-height:125%;letter-spacing:0px;word-spacing:0px;fill:#000000;fill-opacity:1;stroke:none;font-family:Spiegel;-inkscape-font-specification:Spiegel"
       x="403.25238"
       y="-1.2867416e+09"
       id="text3229"
       sodipodi:linespacing="125%"><tspan
         sodipodi:role="line"
         id="tspan3231"
         x="403.25238"
         y="-1.2867416e+09">--</tspan></text>
    <text
       xml:space="preserve"
       style="font-size:16.03287697px;font-style:normal;font-variant:normal;font-weight:normal;font-stretch:normal;line-height:125%;letter-spacing:1.56047213px;word-spacing:0px;fill:#ffffff;fill-opacity:1;stroke:none;font-family:Lato;-inkscape-font-specification:Lato"
       x="348.04761"
       y="289.07977"
       id="text3039"
       sodipodi:linespacing="125%"><tspan
         sodipodi:role="line"
         id="tspan3041"
         x="348.04761"
         y="289.07977">NEXT</tspan></text>
    <text
       xml:space="preserve"
       style="font-size:16.03287697px;font-style:normal;font-variant:normal;font-weight:normal;font-stretch:normal;line-height:125%;letter-spacing:1.56047213px;word-spacing:0px;fill:#ffffff;fill-opacity:1;stroke:none;font-family:Lato;-inkscape-font-specification:Lato"
       x="591.50409"
       y="247.60526"
       id="text3039-3"
       sodipodi:linespacing="125%"
       inkscape:transform-center-x="231.28591"><tspan
         sodipodi:role="line"
         id="tspan3041-9"
         x="591.50409"
         y="247.60526">SHOUT</tspan></text>
    <path
       id="path3064"
       d="m 559.00992,47.649688 2.63928,2.63929 -6.68078,6.68078 -2.63779,-2.63928 6.67929,-6.68079 z m 4.64202,-0.63655 -1.17702,-1.17702 c -0.45489,-0.45489 -1.19353,-0.45489 -1.64993,0 l -1.12748,1.12747 2.63929,2.63929 1.31514,-1.31514 c 0.35281,-0.3528 0.35281,-0.92179 0,-1.2746 z m -12.7025,11.02705 c -0.048,0.21619 0.14712,0.40986 0.36331,0.35731 l 2.94105,-0.71312 -2.63779,-2.63928 -0.66657,2.99509 z"
       inkscape:connector-curvature="0" />
    <text
       xml:space="preserve"
       style="font-size:24.63624954px;font-style:normal;font-variant:normal;font-weight:normal;font-stretch:normal;line-height:125%;letter-spacing:0px;word-spacing:0px;fill:#000000;fill-opacity:1;stroke:none;font-family:Spiegel;-inkscape-font-specification:Spiegel"
       x="550.05304"
       y="135.00795"
       id="text3066"
       sodipodi:linespacing="125%"><tspan
         sodipodi:role="line"
         id="tspan3068"
         x="550.05304"
         y="135.00795">#</tspan></text>
  </g>
</svg>
